<?xml version="1.0" encoding="UTF-8"?>
<svg id="_레이어_1" data-name="레이어 1" xmlns="http://www.w3.org/2000/svg" viewBox="0 0 70 66.89">
  <defs>
    <style>
      .cls-1 {
        fill: #fff;
      }
    </style>
  </defs>
  <path class="cls-1" d="m63.84,12.98c0-3.76-3.06-6.82-6.82-6.82s-6.82,3.06-6.82,6.82,3.06,6.82,6.82,6.82,6.82-3.06,6.82-6.82Zm-11.35,0c0-2.5,2.03-4.53,4.53-4.53s4.53,2.03,4.53,4.53-2.03,4.53-4.53,4.53-4.53-2.03-4.53-4.53Z"/>
  <path class="cls-1" d="m56.12,32.81c.22.28.55.44.9.44s.68-.16.9-.44c.84-1.08,1.88-2.26,2.97-3.52,4.06-4.66,9.11-10.45,9.11-16.31,0-7.16-5.82-12.98-12.98-12.98s-12.98,5.82-12.98,12.98c0,5.86,5.05,11.66,9.11,16.31,1.09,1.25,2.13,2.44,2.97,3.52Zm.9-30.53c5.9,0,10.69,4.8,10.69,10.69,0,5-4.74,10.44-8.55,14.81-.76.87-1.48,1.7-2.15,2.5-.66-.8-1.39-1.63-2.15-2.5-3.81-4.37-8.55-9.81-8.55-14.81,0-5.9,4.8-10.69,10.69-10.69Z"/>
  <path class="cls-1" d="m18.01,27.13c.63,0,1.14-.51,1.14-1.14s-.51-1.14-1.14-1.14c-7.53,0-13.66,6.13-13.66,13.66,0,.63.51,1.14,1.14,1.14s1.14-.51,1.14-1.14c0-6.27,5.1-11.37,11.37-11.37Z"/>
  <path class="cls-1" d="m36.02,38.49c0-9.93-8.08-18.01-18.01-18.01S0,28.56,0,38.49c0,8.17,7.13,16.35,12.86,22.93,1.56,1.79,3.04,3.49,4.25,5.03.22.28.55.44.9.44s.68-.16.9-.44c1.21-1.55,2.69-3.24,4.25-5.03,5.73-6.58,12.86-14.76,12.86-22.93Zm-18.01,25.43c-1.04-1.27-2.21-2.61-3.42-4-5.48-6.29-12.3-14.11-12.3-21.42,0-8.67,7.05-15.72,15.72-15.72s15.72,7.05,15.72,15.72c0,7.31-6.82,15.14-12.3,21.42-1.22,1.4-2.38,2.74-3.42,4.01Z"/>
  <path class="cls-1" d="m55.4,44.53h-8.53c-3.11,0-5.64-2.53-5.64-5.64s2.53-5.64,5.64-5.64h4.34c.63,0,1.14-.51,1.14-1.14s-.51-1.14-1.14-1.14h-4.34c-4.37,0-7.92,3.56-7.92,7.92s3.56,7.92,7.92,7.92h8.53c4.91,0,8.9,3.99,8.9,8.9s-3.99,8.9-8.9,8.9H23.15c-.63,0-1.14.51-1.14,1.14s.51,1.14,1.14,1.14h32.26c6.17,0,11.18-5.02,11.18-11.18s-5.02-11.18-11.18-11.18Z"/>
  <path class="cls-1" d="m18.01,30.16c-4.6,0-8.33,3.74-8.33,8.33s3.74,8.33,8.33,8.33,8.33-3.74,8.33-8.33-3.74-8.33-8.33-8.33Zm0,14.38c-3.33,0-6.05-2.71-6.05-6.05s2.71-6.05,6.05-6.05,6.05,2.71,6.05,6.05-2.71,6.05-6.05,6.05Z"/>
</svg>