<svg width="68" height="63.58" xmlns="http://www.w3.org/2000/svg" data-name=" 迹 1">

 <g>
  <title>Layer 1</title>
  <path id="svg_1" fill="#c8dcfa" d="m7.7,45.21l52.58,0l6.47,13.42c0.39,0.86 0.39,1.87 -0.16,2.65c-0.55,0.86 -1.4,1.33 -2.34,1.33l-60.53,0c-0.94,0 -1.79,-0.47 -2.34,-1.33c-0.47,-0.78 -0.55,-1.79 -0.16,-2.65l6.47,-13.42l0,0l0.01,0z" class="cls-4"/>
  <path id="svg_2" fill-rule="evenodd" fill="#fff" d="m27.2,0.98l20.98,0c1.48,0 2.65,1.25 2.65,2.65l0,41.58l-33.69,0l0,-34.17c0,-1.4 0.55,-2.65 1.56,-3.67l4.84,-4.84c1.01,-1.01 2.26,-1.56 3.67,-1.56l0,0l-0.01,0.01z" class="cls-2"/>
  <path id="svg_3" fill="#c8dcfa" fill-rule="evenodd" d="m17.14,11.04c0,-1.4 0.55,-2.65 1.56,-3.67l4.84,-4.84c1.01,-1.01 2.26,-1.56 3.67,-1.56l0,7.88c0,1.25 -0.94,2.18 -2.18,2.18l-7.89,0l0,0.01z" class="cls-3"/>
  <path id="svg_4" fill="#5096e6" d="m64.25,63.58l-60.53,0c-1.29,0 -2.44,-0.65 -3.16,-1.78c-0.66,-1.09 -0.73,-2.45 -0.22,-3.58l3.75,-7.74c0.23,-0.49 0.82,-0.69 1.3,-0.45c0.48,0.23 0.69,0.82 0.45,1.3l-3.74,7.72c-0.24,0.52 -0.2,1.21 0.11,1.73c0.35,0.54 0.89,0.85 1.5,0.85l60.53,0c0.62,0 1.16,-0.31 1.52,-0.88c0.34,-0.48 0.36,-1.13 0.09,-1.72l-6.2,-12.85l-51.95,0c-0.54,0 -0.98,-0.44 -0.98,-0.98s0.44,-0.98 0.98,-0.98l52.58,0c0.37,0 0.71,0.21 0.88,0.55l6.47,13.42c0.57,1.26 0.48,2.61 -0.24,3.64c-0.69,1.1 -1.85,1.74 -3.14,1.74l0,0l0,0.01z" class="cls-1"/>
  <path id="svg_5" fill="#5096e6" d="m55.2,51.96l-42.43,0c-0.54,0 -0.98,-0.44 -0.98,-0.98s0.44,-0.98 0.98,-0.98l42.44,0c0.54,0 0.98,0.44 0.98,0.98s-0.44,0.98 -0.98,0.98l0,0l-0.01,0z" class="cls-1"/>
  <path id="svg_6" fill="#5096e6" d="m38.98,57.81l-9.98,0c-0.54,0 -0.98,-0.44 -0.98,-0.98s0.44,-0.98 0.98,-0.98l9.98,0c0.54,0 0.98,0.44 0.98,0.98s-0.44,0.98 -0.98,0.98z" class="cls-1"/>
  <path id="svg_7" fill="#5096e6" d="m50.99,41.58c-0.54,0 -0.98,-0.44 -0.98,-0.98l0,-36.97c0,-0.91 -0.77,-1.68 -1.68,-1.68l-21.14,0c-1.18,0 -2.22,0.42 -3.16,1.3l-4.81,4.81c-0.85,0.91 -1.27,1.95 -1.27,3.13l0,29.41c0,0.54 -0.44,0.98 -0.98,0.98s-0.98,-0.44 -0.98,-0.98l0,-29.4c0,-1.67 0.61,-3.18 1.82,-4.49l4.86,-4.86c1.33,-1.23 2.84,-1.85 4.51,-1.85l21.14,0c1.97,0 3.63,1.66 3.63,3.63l0,36.98c0,0.54 -0.44,0.98 -0.98,0.98l0.02,0l0,-0.01z" class="cls-1"/>
  <path id="svg_8" fill="#5096e6" d="m24.94,12.17l-2.73,0c-0.54,0 -0.98,-0.44 -0.98,-0.98s0.44,-0.98 0.98,-0.98l2.73,0c0.71,0 1.29,-0.58 1.29,-1.29l0,-7.94c0,-0.54 0.44,-0.98 0.98,-0.98s0.98,0.44 0.98,0.98l0,7.96c0,1.78 -1.45,3.24 -3.24,3.24l0,0l-0.01,-0.01z" class="cls-1"/>
  <path id="svg_9" fill="#5096e6" d="m46.31,6.87l-7.1,0c-0.54,0 -0.98,-0.44 -0.98,-0.98s0.44,-0.98 0.98,-0.98l7.1,0c0.54,0 0.98,0.44 0.98,0.98s-0.44,0.98 -0.98,0.98z" class="cls-1"/>
  <path id="svg_10" fill="#5096e6" d="m46.31,11.7l-14.35,0c-0.54,0 -0.98,-0.44 -0.98,-0.98s0.44,-0.98 0.98,-0.98l14.35,0c0.54,0 0.98,0.44 0.98,0.98s-0.44,0.98 -0.98,0.98z" class="cls-1"/>
  <path id="svg_11" fill="#5096e6" d="m22.83,25.28l-1.17,0c-0.54,0 -0.98,-0.44 -0.98,-0.98s0.44,-0.98 0.98,-0.98l1.17,0c0.54,0 0.98,0.44 0.98,0.98s-0.44,0.98 -0.98,0.98z" class="cls-1"/>
  <path id="svg_12" fill="#5096e6" d="m46.31,25.28l-19.11,0c-0.54,0 -0.98,-0.44 -0.98,-0.98s0.44,-0.98 0.98,-0.98l19.11,0c0.54,0 0.98,0.44 0.98,0.98s-0.44,0.98 -0.98,0.98z" class="cls-1"/>
  <path id="svg_13" fill="#5096e6" d="m22.83,18.65l-1.17,0c-0.54,0 -0.98,-0.44 -0.98,-0.98s0.44,-0.98 0.98,-0.98l1.17,0c0.54,0 0.98,0.44 0.98,0.98s-0.44,0.98 -0.98,0.98z" class="cls-1"/>
  <path id="svg_14" fill="#5096e6" d="m46.31,18.65l-19.11,0c-0.54,0 -0.98,-0.44 -0.98,-0.98s0.44,-0.98 0.98,-0.98l19.11,0c0.54,0 0.98,0.44 0.98,0.98s-0.44,0.98 -0.98,0.98z" class="cls-1"/>
  <path id="svg_15" fill="#5096e6" d="m22.83,38.46l-1.17,0c-0.54,0 -0.98,-0.44 -0.98,-0.98s0.44,-0.98 0.98,-0.98l1.17,0c0.54,0 0.98,0.44 0.98,0.98s-0.44,0.98 -0.98,0.98z" class="cls-1"/>
  <path id="svg_16" fill="#5096e6" d="m46.31,38.46l-19.11,0c-0.54,0 -0.98,-0.44 -0.98,-0.98s0.44,-0.98 0.98,-0.98l19.11,0c0.54,0 0.98,0.44 0.98,0.98s-0.44,0.98 -0.98,0.98z" class="cls-1"/>
  <path id="svg_17" fill="#5096e6" d="m22.83,31.91l-1.17,0c-0.54,0 -0.98,-0.44 -0.98,-0.98s0.44,-0.98 0.98,-0.98l1.17,0c0.54,0 0.98,0.44 0.98,0.98s-0.44,0.98 -0.98,0.98z" class="cls-1"/>
  <path id="svg_18" fill="#5096e6" d="m46.31,31.91l-19.11,0c-0.54,0 -0.98,-0.44 -0.98,-0.98s0.44,-0.98 0.98,-0.98l19.11,0c0.54,0 0.98,0.44 0.98,0.98s-0.44,0.98 -0.98,0.98z" class="cls-1"/>
  <path id="svg_19" fill="#5096e6" d="m7.7,46.18c-0.54,0 -0.98,-0.44 -0.98,-0.98l0,-30.49c0,-2.73 2.22,-4.95 4.95,-4.95l1.01,0c0.54,0 0.98,0.44 0.98,0.98s-0.44,0.98 -0.98,0.98l-1.01,0c-1.66,0 -3,1.35 -3,3l0,30.5c0,0.54 -0.44,0.98 -0.98,0.98l0,-0.02l0.01,0zm52.58,-5.69c-0.54,0 -0.98,-0.44 -0.98,-0.98l0,-24.8c0,-1.66 -1.35,-3 -3,-3l-1.01,0c-0.54,0 -0.98,-0.44 -0.98,-0.98s0.44,-0.98 0.98,-0.98l1.01,0c2.73,0 4.95,2.22 4.95,4.95l0,24.81c0,0.54 -0.44,0.98 -0.98,0.98l0,0l0.01,0z" class="cls-1"/>
 </g>
</svg>