<svg width="68" height="68" xmlns="http://www.w3.org/2000/svg" data-name="卵迹_1">

 <g>
  <title>Layer 1</title>
  <path id="svg_1" fill="#c8dcfa" fill-rule="evenodd" d="m0.98,49.53l0,5.15c0,1.8 1.41,3.2 3.12,3.2l59.8,0c1.72,0 3.12,-1.41 3.12,-3.2l0,-5.15l-66.04,0z" class="cls-4"/>
  <polygon id="svg_2" fill="#c8dcfa" fill-rule="evenodd" points="40.56 67.1 38.61 57.89 29.39 57.89 27.52 67.1 40.56 67.1" class="cls-4"/>
  <path id="svg_3" fill="#fff" fill-rule="evenodd" d="m22.45,43.99c11.87,0 21.55,-9.68 21.55,-21.55s-9.69,-21.46 -21.55,-21.46s-21.47,9.68 -21.47,21.46s9.68,21.55 21.47,21.55l0,0z" class="cls-3"/>
  <path id="svg_4" fill="#c8dcfa" fill-rule="evenodd" d="m16.82,24.32c1.48,-1.48 3.51,-2.42 5.62,-2.42s4.22,0.94 5.7,2.42c1.33,1.41 2.26,3.2 2.26,5.23c0,4.37 -3.59,5.07 -7.96,5.07s-7.88,-0.7 -7.88,-5.07c0,-2.03 0.94,-3.83 2.26,-5.23l0,0z" class="cls-4"/>
  <path id="svg_5" fill-rule="evenodd" fill="#f6f7f7" d="m22.45,9.95c2.58,0 4.61,2.11 4.61,4.61s-2.03,7.03 -4.61,7.03s-4.61,-4.45 -4.61,-7.03s2.11,-4.61 4.61,-4.61l0,0z" class="cls-2"/>
  <polygon id="svg_6" fill="#c8dcfa" fill-rule="evenodd" points="44.62 43.99 37.51 33.22 49.93 36.73 44.62 43.99" class="cls-4"/>
  <path id="svg_7" fill="#5096e6" d="m63.9,58.86l-59.8,0c-2.26,0 -4.1,-1.87 -4.1,-4.18l0,-15.77c0,-0.54 0.44,-0.98 0.98,-0.98s0.98,0.44 0.98,0.98l0,15.77c0,1.25 0.94,2.22 2.15,2.22l59.8,0c1.2,0 2.15,-0.98 2.15,-2.22l0,-15.92c0,-0.54 0.44,-0.98 0.98,-0.98s0.98,0.44 0.98,0.98l0,15.92c0,2.3 -1.84,4.18 -4.1,4.18l-0.02,0zm3.12,-24.04c-0.54,0 -0.98,-0.44 -0.98,-0.98l0,-23.11c0,-1.2 -0.98,-2.22 -2.15,-2.22l-18.81,0c-0.54,0 -0.98,-0.44 -0.98,-0.98s0.44,-0.98 0.98,-0.98l18.81,0c2.22,0 4.1,1.91 4.1,4.18l0,23.11c0,0.54 -0.44,0.98 -0.98,0.98l0.01,0z" class="cls-1"/>
  <g id="svg_8">
   <path id="svg_9" fill="#5096e6" d="m22.45,22.8c-3.33,0 -5.66,-5.29 -5.66,-8.16c0,-3.12 2.54,-5.66 5.66,-5.66s5.66,2.49 5.66,5.66c0,2.8 -2.2,8.16 -5.66,8.16zm0,-11.87c-2.04,0 -3.71,1.66 -3.71,3.71c0,2.45 1.99,6.21 3.71,6.21c1.88,0 3.71,-3.93 3.71,-6.21c0,-2.08 -1.63,-3.71 -3.71,-3.71z" class="cls-1"/>
   <path id="svg_10" fill="#5096e6" d="m22.45,35.99c-2.93,0 -9.02,0 -9.02,-6.13c0,-2.11 0.9,-4.18 2.61,-5.98c0.37,-0.39 0.99,-0.41 1.38,-0.03c0.39,0.37 0.41,0.99 0.04,1.38c-1.38,1.45 -2.07,3.01 -2.07,4.64c0,3.08 1.85,4.17 7.06,4.17s7.07,-1.09 7.07,-4.17c0,-1.6 -0.68,-3.17 -2.02,-4.66c-0.36,-0.4 -0.33,-1.02 0.08,-1.38c0.4,-0.36 1.02,-0.32 1.38,0.08c1.67,1.86 2.51,3.87 2.51,5.96c0,6.13 -6.09,6.13 -9.02,6.13l0,-0.01z" class="cls-1"/>
   <path id="svg_11" fill="#5096e6" d="m22.45,28.5c-0.25,0 -0.5,-0.1 -0.69,-0.29l-1.25,-1.25c-0.38,-0.38 -0.38,-1 0,-1.38c0.38,-0.38 1,-0.38 1.38,0l1.25,1.25c0.38,0.38 0.38,1 0,1.38c-0.19,0.19 -0.44,0.29 -0.69,0.29z" class="cls-1"/>
   <path id="svg_12" fill="#5096e6" d="m22.45,28.5c-0.26,0 -0.52,-0.1 -0.71,-0.31c-0.37,-0.39 -0.35,-1.01 0.04,-1.38l1.33,-1.25c0.4,-0.37 1.01,-0.35 1.38,0.04c0.37,0.39 0.35,1.01 -0.04,1.38l-1.33,1.25c-0.19,0.18 -0.43,0.27 -0.67,0.27z" class="cls-1"/>
   <path id="svg_13" fill="#5096e6" d="m22.45,35.99c-0.54,0 -0.98,-0.44 -0.98,-0.98l0,-7.49c0,-0.54 0.44,-0.98 0.98,-0.98s0.98,0.44 0.98,0.98l0,7.49c0,0.54 -0.44,0.98 -0.98,0.98z" class="cls-1"/>
   <path id="svg_14" fill="#5096e6" d="m45.4,68l-22.8,0c-0.54,0 -0.98,-0.44 -0.98,-0.98s0.44,-0.98 0.98,-0.98l22.8,0c0.54,0 0.98,0.44 0.98,0.98s-0.44,0.98 -0.98,0.98z" class="cls-1"/>
   <path id="svg_15" fill="#5096e6" d="m27.52,68c-0.07,0 -0.14,0 -0.22,-0.02c-0.53,-0.12 -0.86,-0.64 -0.74,-1.16l1.01,-4.53c0.12,-0.53 0.64,-0.86 1.17,-0.74c0.53,0.12 0.86,0.64 0.74,1.16l-1.01,4.53c-0.1,0.45 -0.5,0.76 -0.95,0.76z" class="cls-1"/>
   <path id="svg_16" fill="#5096e6" d="m40.56,68c-0.44,0 -0.84,-0.3 -0.95,-0.74l-1.95,-7.96c-0.13,-0.52 0.19,-1.05 0.72,-1.18c0.52,-0.14 1.05,0.19 1.18,0.72l1.95,7.96c0.13,0.52 -0.19,1.05 -0.72,1.18c-0.08,0.02 -0.16,0.03 -0.23,0.03l0,-0.01z" class="cls-1"/>
   <path id="svg_17" fill="#5096e6" d="m67.02,50.51l-66.04,0c-0.54,0 -0.98,-0.44 -0.98,-0.98s0.44,-0.98 0.98,-0.98l66.05,0c0.54,0 0.98,0.44 0.98,0.98s-0.44,0.98 -0.98,0.98l-0.01,0z" class="cls-1"/>
   <path id="svg_18" fill="#5096e6" d="m44.62,44.97l-0.02,0c-0.32,0 -0.61,-0.17 -0.79,-0.44l-7.1,-10.77c-0.22,-0.34 -0.21,-0.79 0.03,-1.11c0.24,-0.33 0.66,-0.47 1.05,-0.36l12.41,3.51c0.31,0.09 0.55,0.32 0.66,0.62c0.1,0.3 0.05,0.63 -0.13,0.89l-5.31,7.26c-0.18,0.25 -0.48,0.4 -0.79,0.4l-0.01,0zm-4.85,-10.09l4.89,7.41l3.65,-4.99l-8.54,-2.42z" class="cls-1"/>
   <path id="svg_19" fill="#5096e6" d="m51.95,44.81c-0.2,0 -0.41,-0.06 -0.58,-0.2l-4.68,-3.51c-0.43,-0.32 -0.52,-0.93 -0.2,-1.37c0.32,-0.43 0.93,-0.52 1.37,-0.19l4.68,3.51c0.43,0.32 0.52,0.93 0.2,1.37c-0.19,0.26 -0.49,0.39 -0.78,0.39l-0.01,0z" class="cls-1"/>
   <path id="svg_20" fill="#5096e6" d="m22.45,44.97c-12.38,0 -22.45,-10.11 -22.45,-22.53s10.07,-22.44 22.45,-22.44s22.52,10.07 22.52,22.44c0,2.72 -0.47,5.33 -1.39,7.76c-0.19,0.5 -0.76,0.76 -1.26,0.56c-0.5,-0.19 -0.76,-0.75 -0.57,-1.26c0.84,-2.21 1.26,-4.59 1.26,-7.07c0,-11.3 -9.23,-20.49 -20.57,-20.49s-20.49,9.21 -20.49,20.5s9.19,20.57 20.49,20.57c4.76,0 9.25,-1.6 12.97,-4.62c0.42,-0.33 1.03,-0.27 1.37,0.14c0.34,0.42 0.28,1.03 -0.14,1.37c-4.07,3.31 -8.98,5.06 -14.2,5.06l0.01,0.01z" class="cls-1"/>
   <path id="svg_21" fill="#5096e6" d="m34.47,54.65l-0.94,0c-0.54,0 -0.98,-0.44 -0.98,-0.98s0.44,-0.98 0.98,-0.98l0.94,0c0.54,0 0.98,0.44 0.98,0.98s-0.44,0.98 -0.98,0.98z" class="cls-1"/>
  </g>
 </g>
</svg>