<?xml version="1.0" encoding="UTF-8"?>
<svg id="_레이어_1" data-name="레이어 1" xmlns="http://www.w3.org/2000/svg" viewBox="0 0 70 69.83">
  <defs>
    <style>
      .cls-1 {
        fill: #fff;
      }
    </style>
  </defs>
  <path class="cls-1" d="m29.3,51.38c-.63,0-1.14.51-1.14,1.14s.51,1.14,1.14,1.14h11.39c.63,0,1.14-.51,1.14-1.14s-.51-1.14-1.14-1.14h-11.39Z"/>
  <path class="cls-1" d="m33.35,47.29h-6.81c-.63,0-1.14.51-1.14,1.14s.51,1.14,1.14,1.14h16.91c.63,0,1.14-.51,1.14-1.14s-.51-1.14-1.14-1.14h-6.81c1.11-1.37,2.39-2.83,3.72-4.36,6.02-6.9,13.5-15.5,13.5-24.06C53.87,8.46,45.41,0,35,0s-18.87,8.46-18.87,18.87c0,8.56,7.49,17.15,13.5,24.06,1.33,1.53,2.61,2.99,3.72,4.36Zm1.65-45c9.14,0,16.58,7.44,16.58,16.58,0,7.7-7.17,15.94-12.94,22.55-1.3,1.49-2.54,2.91-3.64,4.26-1.11-1.35-2.35-2.77-3.64-4.26-5.76-6.62-12.94-14.85-12.94-22.55,0-9.14,7.44-16.58,16.58-16.58Z"/>
  <path class="cls-1" d="m35,6.86c.63,0,1.14-.51,1.14-1.14s-.51-1.14-1.14-1.14c-7.88,0-14.29,6.41-14.29,14.29,0,.63.51,1.14,1.14,1.14s1.14-.51,1.14-1.14c0-6.62,5.39-12.01,12.01-12.01Z"/>
  <path class="cls-1" d="m62.57,19.88h-2.66c-.63,0-1.14.51-1.14,1.14v5.9h-4.11c-.63,0-1.14.51-1.14,1.14s.51,1.14,1.14,1.14h4.11v26.9c0,.63.51,1.14,1.14,1.14h2.66c2.83,0,5.14,2.31,5.14,5.14s-2.31,5.14-5.14,5.14H7.43c-2.83,0-5.14-2.31-5.14-5.14s2.31-5.14,5.14-5.14h2.66c.63,0,1.14-.51,1.14-1.14v-26.9h4.11c.63,0,1.14-.51,1.14-1.14s-.51-1.14-1.14-1.14h-4.11v-5.9c0-.63-.51-1.14-1.14-1.14h-2.66c-4.1,0-7.43,3.33-7.43,7.43v35.09c0,4.1,3.33,7.43,7.43,7.43h55.14c4.1,0,7.43-3.33,7.43-7.43V27.31c0-4.1-3.33-7.43-7.43-7.43ZM2.29,27.31c0-2.83,2.31-5.14,5.14-5.14h1.51v32.8h-1.51c-1.99,0-3.81.79-5.14,2.07v-29.73Zm65.42,29.73c-1.34-1.28-3.15-2.07-5.14-2.07h-1.51V22.17h1.51c2.83,0,5.14,2.31,5.14,5.14v29.73Z"/>
  <path class="cls-1" d="m43.7,18.87c0-4.8-3.9-8.7-8.7-8.7s-8.7,3.9-8.7,8.7,3.9,8.7,8.7,8.7,8.7-3.9,8.7-8.7Zm-15.11,0c0-3.54,2.88-6.41,6.41-6.41s6.41,2.88,6.41,6.41-2.88,6.41-6.41,6.41-6.41-2.88-6.41-6.41Z"/>
</svg>