<?xml version="1.0" encoding="UTF-8"?>
<svg id="_레이어_1" data-name="레이어 1" xmlns="http://www.w3.org/2000/svg" viewBox="0 0 70 69.94">
  <defs>
    <style>
      .cls-1 {
        fill: #fff;
      }

      .cls-2 {
        fill: none;
      }
    </style>
  </defs>
  <g>
    <rect class="cls-2" x="2.29" y="64.72" width="65.42" height="2.93"/>
    <path class="cls-1" d="m33.83,32.61l.02,14.63-3.73-2.15c-.55-.32-1.25-.13-1.56.42-.32.55-.13,1.25.42,1.56l3.73,2.15-3.73,2.15c-.55.32-.73,1.02-.42,1.56.32.55,1.02.73,1.56.42l4.88-2.81,4.88,2.81c.18.1.38.15.57.15.4,0,.78-.21.99-.57.32-.55.13-1.25-.42-1.56l-3.73-2.15,3.73-2.15c.55-.32.73-1.02.42-1.56-.32-.55-1.02-.73-1.56-.42l-3.73,2.15v-14.64c8.21-.76,15.01-8.04,15.01-16.44C51.16,7.25,43.91,0,35,0s-16.16,7.25-16.16,16.16c0,8.4,6.78,15.69,14.99,16.45Zm1.17-30.07c7.59,0,13.74,6.15,13.74,13.74s-6.15,13.74-13.74,13.74-13.74-6.15-13.74-13.74,6.15-13.74,13.74-13.74Z"/>
    <path class="cls-1" d="m70,63.51c0-.12-.03-.24-.08-.34l-9.49-26.07c-.16-.45-.59-.75-1.07-.75h-20.24c-.63,0-1.14.51-1.14,1.14s.51,1.14,1.14,1.14h19.44l8.66,23.81H2.78l8.66-23.81h19.44c.63,0,1.14-.51,1.14-1.14s-.51-1.14-1.14-1.14H10.64c-.48,0-.91.3-1.07.75L.08,63.16c-.05.13-.08.27-.08.42v5.22c0,.63.51,1.14,1.14,1.14h67.71c.63,0,1.14-.51,1.14-1.14v-5.21s0-.05,0-.08Zm-2.29,4.15H2.29v-2.93h65.42v2.93Z"/>
  </g>
  <path class="cls-1" d="m33.44,19.5v5.92h-3.09V8.78h5.75c.89,0,1.7.13,2.41.39.71.26,1.32.62,1.82,1.09s.88,1.03,1.15,1.7c.27.66.4,1.39.4,2.18s-.13,1.54-.4,2.19c-.27.66-.65,1.22-1.15,1.69-.5.47-1.1.83-1.82,1.09-.71.26-1.52.39-2.41.39h-2.66Zm5.32-5.36c0-.84-.24-1.5-.72-2s-1.2-.75-2.15-.75h-2.44v5.51h2.44c.95,0,1.67-.25,2.15-.75s.72-1.17.72-2.02Z"/>
</svg>