<svg width="68" height="67.99" xmlns="http://www.w3.org/2000/svg" data-name="卵迹_1">

 <g>
  <title>Layer 1</title>
  <path id="svg_1" fill="#c8dcfa" fill-rule="evenodd" d="m29.68,58.38c15.83,0 28.78,-12.87 28.78,-28.7s-12.95,-28.7 -28.78,-28.7s-28.7,12.86 -28.7,28.7s12.87,28.7 28.7,28.7l0,0z" class="cls-3"/>
  <path id="svg_2" fill-rule="evenodd" fill="#fff" d="m29.68,53.62c13.18,0 23.94,-10.76 23.94,-23.94s-10.76,-23.95 -23.94,-23.95s-23.87,10.77 -23.87,23.95s10.69,23.94 23.87,23.94l0,0z" class="cls-2"/>
  <path id="svg_3" fill="#c8dcfa" fill-rule="evenodd" d="m29.68,27.1c1.48,0 2.57,1.17 2.57,2.57s-1.09,2.57 -2.57,2.57c-1.4,0 -2.57,-1.17 -2.57,-2.57s1.17,-2.57 2.57,-2.57l0,0z" class="cls-3"/>
  <path id="svg_4" fill-rule="evenodd" fill="#fff" d="m52.53,67.04c7.96,0 14.51,-6.55 14.51,-14.58s-6.55,-14.51 -14.51,-14.51s-14.58,6.55 -14.58,14.51s6.55,14.58 14.58,14.58l0,0z" class="cls-2"/>
  <path id="svg_5" fill="#5096e6" d="m52.52,67.99c-4.14,0 -8.03,-1.62 -10.97,-4.56c-5.96,-6.04 -5.96,-15.85 0,-21.89c5.37,-5.28 13.66,-6.05 19.73,-1.83c0.44,0.31 0.55,0.91 0.24,1.36c-0.31,0.44 -0.91,0.55 -1.36,0.24c-5.31,-3.68 -12.56,-3 -17.24,1.61c-5.2,5.27 -5.2,13.86 0.01,19.13c2.57,2.57 5.97,3.98 9.59,3.98l0.05,0c3.6,-0.01 6.97,-1.43 9.48,-3.98c4.65,-4.58 5.32,-11.83 1.61,-17.25c-0.3,-0.44 -0.19,-1.05 0.25,-1.36c0.44,-0.3 1.05,-0.19 1.36,0.25c4.25,6.2 3.48,14.5 -1.84,19.73c-2.88,2.92 -6.74,4.54 -10.86,4.55l-0.06,0l0.01,0.02z" class="cls-1"/>
  <path id="svg_6" fill="#5096e6" d="m29.83,59.51c-16.45,0 -29.83,-13.35 -29.83,-29.75s13.38,-29.76 29.83,-29.76c6.92,0 13.65,2.44 18.95,6.86c0.41,0.35 0.47,0.96 0.12,1.37c-0.34,0.41 -0.96,0.47 -1.37,0.12c-4.96,-4.13 -11.24,-6.4 -17.7,-6.4c-15.37,0 -27.88,12.47 -27.88,27.81s12.51,27.8 27.88,27.8c1.33,0 3.07,-0.04 4.81,-0.37c0.53,-0.1 1.04,0.25 1.14,0.78c0.1,0.53 -0.25,1.04 -0.78,1.14c-1.9,0.36 -3.76,0.41 -5.18,0.41l0.01,-0.01zm28.31,-23.71c-0.06,0 -0.12,0 -0.18,-0.02c-0.53,-0.1 -0.88,-0.61 -0.78,-1.14c0.3,-1.57 0.45,-3.21 0.45,-4.89c0,-6.46 -2.27,-12.75 -6.4,-17.7c-0.35,-0.41 -0.29,-1.03 0.12,-1.37c0.41,-0.35 1.03,-0.29 1.37,0.12c4.42,5.31 6.86,12.04 6.86,18.95c0,1.79 -0.16,3.56 -0.48,5.25c-0.09,0.47 -0.5,0.79 -0.96,0.79l0,0.01z" class="cls-1"/>
  <path id="svg_7" fill="#5096e6" d="m29.83,33.3c-1.99,0 -3.55,-1.56 -3.55,-3.55s1.56,-3.55 3.55,-3.55s3.47,1.59 3.47,3.55s-1.56,3.55 -3.47,3.55zm0,-5.15c-0.91,0 -1.6,0.69 -1.6,1.6s0.69,1.6 1.6,1.6c0.84,0 1.52,-0.72 1.52,-1.6s-0.68,-1.6 -1.52,-1.6z" class="cls-1"/>
  <path id="svg_8" fill="#5096e6" d="m29.83,28.16c-0.54,0 -0.98,-0.44 -0.98,-0.98l0,-16.38c0,-0.54 0.44,-0.98 0.98,-0.98s0.98,0.44 0.98,0.98l0,16.38c0,0.54 -0.44,0.98 -0.98,0.98z" class="cls-1"/>
  <path id="svg_9" fill="#5096e6" d="m20.32,40.25c-0.25,0 -0.5,-0.09 -0.69,-0.28c-0.38,-0.38 -0.39,-1 0,-1.38l7.64,-7.72c0.38,-0.39 1,-0.38 1.38,0c0.38,0.38 0.39,1 0,1.38l-7.64,7.72c-0.19,0.19 -0.44,0.29 -0.69,0.29l0,-0.01z" class="cls-1"/>
  <path id="svg_10" fill="#5096e6" d="m29.83,6.79c-0.54,0 -0.98,-0.44 -0.98,-0.98l0,-0.55c0,-0.54 0.44,-0.98 0.98,-0.98s0.98,0.44 0.98,0.98l0,0.55c0,0.54 -0.44,0.98 -0.98,0.98z" class="cls-1"/>
  <path id="svg_11" fill="#5096e6" d="m29.83,55.3c-0.54,0 -0.98,-0.44 -0.98,-0.98l0,-0.55c0,-0.54 0.44,-0.98 0.98,-0.98s0.98,0.44 0.98,0.98l0,0.55c0,0.54 -0.44,0.98 -0.98,0.98z" class="cls-1"/>
  <path id="svg_12" fill="#5096e6" d="m54.32,30.73l-0.55,0c-0.54,0 -0.98,-0.44 -0.98,-0.98s0.44,-0.98 0.98,-0.98l0.55,0c0.54,0 0.98,0.44 0.98,0.98s-0.44,0.98 -0.98,0.98z" class="cls-1"/>
  <path id="svg_13" fill="#5096e6" d="m5.81,30.73l-0.55,0c-0.54,0 -0.98,-0.44 -0.98,-0.98s0.44,-0.98 0.98,-0.98l0.55,0c0.54,0 0.98,0.44 0.98,0.98s-0.44,0.98 -0.98,0.98z" class="cls-1"/>
  <path id="svg_14" fill="#5096e6" d="m46.76,13.81c-0.25,0 -0.5,-0.1 -0.69,-0.28c-0.38,-0.38 -0.38,-1 0,-1.38l0.39,-0.39c0.38,-0.38 1,-0.38 1.38,0c0.38,0.38 0.38,1 0,1.38l-0.39,0.39c-0.19,0.19 -0.44,0.29 -0.69,0.29l0,-0.01z" class="cls-1"/>
  <path id="svg_15" fill="#5096e6" d="m12.44,48.05c-0.28,0 -0.57,-0.13 -0.76,-0.37c-0.34,-0.42 -0.27,-1.03 0.15,-1.37l0.39,-0.31c0.42,-0.34 1.03,-0.27 1.37,0.15c0.34,0.42 0.27,1.03 -0.15,1.37l-0.39,0.31c-0.18,0.14 -0.39,0.21 -0.61,0.21l0,0.01z" class="cls-1"/>
  <path id="svg_16" fill="#5096e6" d="m12.83,13.81c-0.25,0 -0.5,-0.1 -0.69,-0.29l-0.39,-0.39c-0.38,-0.38 -0.38,-1 0,-1.38c0.38,-0.38 1,-0.38 1.38,0l0.39,0.39c0.38,0.38 0.38,1 0,1.38c-0.19,0.19 -0.44,0.28 -0.69,0.28l0,0.01z" class="cls-1"/>
  <path id="svg_17" fill="#5096e6" d="m51.13,57.87c-0.31,0 -0.61,-0.15 -0.79,-0.4l-3.28,-4.52c-0.32,-0.44 -0.22,-1.05 0.22,-1.36c0.44,-0.32 1.05,-0.22 1.36,0.22l2.47,3.41l5.3,-7.61c0.31,-0.44 0.91,-0.55 1.36,-0.24c0.44,0.31 0.55,0.91 0.24,1.36l-6.08,8.74c-0.18,0.26 -0.48,0.41 -0.79,0.42l0,0l-0.01,-0.02z" class="cls-1"/>
 </g>
</svg>