<svg width="68" height="68" xmlns="http://www.w3.org/2000/svg" data-name="卵迹_1">

 <g>
  <title>Layer 1</title>
  <path id="svg_1" fill="#c8dcfa" fill-rule="evenodd" d="m6.86,3.35l49.05,0c3.2,0 5.85,2.57 5.85,5.77l0,6l-60.75,0l0,-6c0,-3.2 2.57,-5.77 5.85,-5.77l0,0z" class="cls-3"/>
  <path id="svg_2" fill-rule="evenodd" fill="#fff" d="m54.98,42.89c6.63,0 12.01,5.38 12.01,12.09s-5.38,12.01 -12.01,12.01s-12.09,-5.38 -12.09,-12.01s5.38,-12.09 12.09,-12.09l0,0z" class="cls-2"/>
  <path id="svg_3" fill="#5096e6" d="m54.98,68c-7.22,0 -13.1,-5.84 -13.1,-13.02s5.88,-13.1 13.1,-13.1c2.7,0 5.33,0.85 7.6,2.44c0.46,0.32 0.57,0.96 0.25,1.41c-0.32,0.46 -0.96,0.57 -1.41,0.25c-1.93,-1.36 -4.16,-2.08 -6.44,-2.08c-6.11,0 -11.07,4.97 -11.07,11.07s4.97,11 11.07,11s11,-4.93 11,-11c0,-2.29 -0.71,-4.58 -2,-6.44c-0.32,-0.46 -0.2,-1.09 0.26,-1.41c0.46,-0.32 1.09,-0.21 1.41,0.26c1.52,2.2 2.36,4.9 2.36,7.6c0,7.18 -5.84,13.02 -13.02,13.02l-0.01,0z" class="cls-1"/>
  <path id="svg_4" fill="#5096e6" d="m61.76,16.14l-54.66,0c-0.56,0 -1.01,-0.45 -1.01,-1.01s0.45,-1.01 1.01,-1.01l54.67,0c0.56,0 1.01,0.45 1.01,1.01s-0.45,1.01 -1.01,1.01l-0.01,0z" class="cls-1"/>
  <path id="svg_5" fill="#5096e6" d="m10.85575,9.2c-0.56,0 -1.01,-0.45 -1.01,-1.01l0,-7.18c0,-0.56 0.45,-1.01 1.01,-1.01s1.01,0.45 1.01,1.01l0,7.17c0,0.56 -0.45,1.01 -1.01,1.01l0,0.01z" class="cls-1"/>
  <path id="svg_6" fill="#5096e6" d="m21.23575,9.2c-0.56,0 -1.01,-0.45 -1.01,-1.01l0,-7.18c0,-0.56 0.45,-1.01 1.01,-1.01s1.01,0.45 1.01,1.01l0,7.17c0,0.56 -0.45,1.01 -1.01,1.01l0,0.01z" class="cls-1"/>
  <path id="svg_7" fill="#5096e6" d="m31.52575,9.2c-0.56,0 -1.01,-0.45 -1.01,-1.01l0,-7.18c0,-0.56 0.45,-1.01 1.01,-1.01s1.01,0.45 1.01,1.01l0,7.17c0,0.56 -0.45,1.01 -1.01,1.01l0,0.01z" class="cls-1"/>
  <path id="svg_8" fill="#5096e6" d="m41.89575,9.2c-0.56,0 -1.01,-0.45 -1.01,-1.01l0,-7.18c0,-0.56 0.45,-1.01 1.01,-1.01s1.01,0.45 1.01,1.01l0,7.17c0,0.56 -0.45,1.01 -1.01,1.01l0,0.01z" class="cls-1"/>
  <path id="svg_9" fill="#5096e6" d="m52.01,9.2c-0.56,0 -1.01,-0.45 -1.01,-1.01l0,-7.18c0,-0.56 0.45,-1.01 1.01,-1.01s1.01,0.45 1.01,1.01l0,7.17c0,0.56 -0.45,1.01 -1.01,1.01l0,0.01z" class="cls-1"/>
  <path id="svg_10" fill="#5096e6" d="m38.76,55.06l-31.9,0c-3.85,0 -6.86,-2.98 -6.86,-6.78l0,-39.16c0,-3.8 3.01,-6.78 6.86,-6.78l3.82,0c0.56,0 1.01,0.45 1.01,1.01s-0.45,1.01 -1.01,1.01l-3.82,0c-2.71,0 -4.84,2.09 -4.84,4.76l0,39.15c0,2.67 2.13,4.76 4.84,4.76l31.9,0c0.56,0 1.01,0.45 1.01,1.01s-0.45,1.01 -1.01,1.01l0,0.01zm23.01,-13.8c-0.56,0 -1.01,-0.45 -1.01,-1.01l0,-31.13c0,-2.41 -1.9,-4.5 -4.32,-4.76c-0.56,-0.06 -0.96,-0.56 -0.9,-1.12c0.06,-0.55 0.53,-0.99 1.12,-0.9c3.44,0.37 6.13,3.35 6.13,6.78l0,31.12c0,0.56 -0.45,1.01 -1.01,1.01l-0.01,0.01zm-9.76,-36.9l-5.85,0c-0.56,0 -1.01,-0.45 -1.01,-1.01s0.45,-1.01 1.01,-1.01l5.85,0c0.56,0 1.01,0.45 1.01,1.01s-0.45,1.01 -1.01,1.01zm-10.29,0l-5.85,0c-0.56,0 -1.01,-0.45 -1.01,-1.01s0.45,-1.01 1.01,-1.01l5.85,0c0.56,0 1.01,0.45 1.01,1.01s-0.45,1.01 -1.01,1.01zm-10.37,0l-5.85,0c-0.56,0 -1.01,-0.45 -1.01,-1.01s0.45,-1.01 1.01,-1.01l5.85,0c0.56,0 1.01,0.45 1.01,1.01s-0.45,1.01 -1.01,1.01zm-10.29,0l-5.85,0c-0.56,0 -1.01,-0.45 -1.01,-1.01s0.45,-1.01 1.01,-1.01l5.85,0c0.56,0 1.01,0.45 1.01,1.01s-0.45,1.01 -1.01,1.01z" class="cls-1"/>
  <path id="svg_11" fill="#5096e6" d="m31.89,25.11c-0.56,0 -1.09,-0.45 -1.09,-1.01s0.38,-1.01 0.93,-1.01l0.16,0c0.56,0 1.01,0.45 1.01,1.01s-0.45,1.01 -1.01,1.01z" class="cls-1"/>
  <path id="svg_12" fill="#5096e6" d="m39.69,25.11c-0.56,0 -1.09,-0.45 -1.09,-1.01s0.38,-1.01 0.93,-1.01l0.16,0c0.56,0 1.01,0.45 1.01,1.01s-0.45,1.01 -1.01,1.01z" class="cls-1"/>
  <path id="svg_13" fill="#5096e6" d="m47.49,25.11c-0.56,0 -1.09,-0.45 -1.09,-1.01s0.38,-1.01 0.93,-1.01l0.16,0c0.56,0 1.01,0.45 1.01,1.01s-0.45,1.01 -1.01,1.01z" class="cls-1"/>
  <path id="svg_14" fill="#5096e6" d="m55.29,25.11c-0.56,0 -1.09,-0.45 -1.09,-1.01s0.38,-1.01 0.93,-1.01l0.16,0c0.56,0 1.01,0.45 1.01,1.01s-0.45,1.01 -1.01,1.01z" class="cls-1"/>
  <path id="svg_15" fill="#5096e6" d="m8.5,32.13c-0.56,0 -1.13,-0.45 -1.13,-1.01s0.34,-1.01 0.9,-1.01l0.23,0c0.56,0 1.01,0.45 1.01,1.01s-0.45,1.01 -1.01,1.01z" class="cls-1"/>
  <path id="svg_16" fill="#5096e6" d="m16.3,32.13c-0.56,0 -1.13,-0.45 -1.13,-1.01s0.34,-1.01 0.9,-1.01l0.23,0c0.56,0 1.01,0.45 1.01,1.01s-0.45,1.01 -1.01,1.01z" class="cls-1"/>
  <path id="svg_17" fill="#5096e6" d="m24.1,32.13c-0.56,0 -1.09,-0.45 -1.09,-1.01s0.38,-1.01 0.93,-1.01l0.16,0c0.56,0 1.01,0.45 1.01,1.01s-0.45,1.01 -1.01,1.01z" class="cls-1"/>
  <path id="svg_18" fill="#5096e6" d="m31.89,32.13c-0.56,0 -1.09,-0.45 -1.09,-1.01s0.38,-1.01 0.93,-1.01l0.16,0c0.56,0 1.01,0.45 1.01,1.01s-0.45,1.01 -1.01,1.01z" class="cls-1"/>
  <path id="svg_19" fill="#5096e6" d="m39.69,32.13c-0.56,0 -1.09,-0.45 -1.09,-1.01s0.38,-1.01 0.93,-1.01l0.16,0c0.56,0 1.01,0.45 1.01,1.01s-0.45,1.01 -1.01,1.01z" class="cls-1"/>
  <path id="svg_20" fill="#5096e6" d="m47.49,32.13c-0.56,0 -1.09,-0.45 -1.09,-1.01s0.38,-1.01 0.93,-1.01l0.16,0c0.56,0 1.01,0.45 1.01,1.01s-0.45,1.01 -1.01,1.01z" class="cls-1"/>
  <path id="svg_21" fill="#5096e6" d="m55.29,32.13c-0.56,0 -1.09,-0.45 -1.09,-1.01s0.38,-1.01 0.93,-1.01l0.16,0c0.56,0 1.01,0.45 1.01,1.01s-0.45,1.01 -1.01,1.01z" class="cls-1"/>
  <path id="svg_22" fill="#5096e6" d="m8.5,39.14c-0.56,0 -1.13,-0.45 -1.13,-1.01s0.34,-1.01 0.9,-1.01l0.23,0c0.56,0 1.01,0.45 1.01,1.01s-0.45,1.01 -1.01,1.01z" class="cls-1"/>
  <path id="svg_23" fill="#5096e6" d="m16.3,39.14c-0.56,0 -1.13,-0.45 -1.13,-1.01s0.34,-1.01 0.9,-1.01l0.23,0c0.56,0 1.01,0.45 1.01,1.01s-0.45,1.01 -1.01,1.01z" class="cls-1"/>
  <path id="svg_24" fill="#5096e6" d="m24.1,39.14c-0.56,0 -1.09,-0.45 -1.09,-1.01s0.38,-1.01 0.93,-1.01l0.16,0c0.56,0 1.01,0.45 1.01,1.01s-0.45,1.01 -1.01,1.01z" class="cls-1"/>
  <path id="svg_25" fill="#5096e6" d="m31.89,39.14c-0.56,0 -1.09,-0.45 -1.09,-1.01s0.38,-1.01 0.93,-1.01l0.16,0c0.56,0 1.01,0.45 1.01,1.01s-0.45,1.01 -1.01,1.01z" class="cls-1"/>
  <path id="svg_26" fill="#5096e6" d="m39.69,39.14c-0.56,0 -1.09,-0.45 -1.09,-1.01s0.38,-1.01 0.93,-1.01l0.16,0c0.56,0 1.01,0.45 1.01,1.01s-0.45,1.01 -1.01,1.01z" class="cls-1"/>
  <path id="svg_27" fill="#5096e6" d="m47.49,39.14c-0.56,0 -1.09,-0.45 -1.09,-1.01s0.38,-1.01 0.93,-1.01l0.16,0c0.56,0 1.01,0.45 1.01,1.01s-0.45,1.01 -1.01,1.01z" class="cls-1"/>
  <path id="svg_28" fill="#5096e6" d="m55.29,39.14c-0.56,0 -1.09,-0.45 -1.09,-1.01s0.38,-1.01 0.93,-1.01l0.16,0c0.56,0 1.01,0.45 1.01,1.01s-0.45,1.01 -1.01,1.01z" class="cls-1"/>
  <path id="svg_29" fill="#5096e6" d="m8.5,46.16c-0.56,0 -1.13,-0.45 -1.13,-1.01s0.34,-1.01 0.9,-1.01l0.23,0c0.56,0 1.01,0.45 1.01,1.01s-0.45,1.01 -1.01,1.01z" class="cls-1"/>
  <path id="svg_30" fill="#5096e6" d="m16.3,46.16c-0.56,0 -1.13,-0.45 -1.13,-1.01s0.34,-1.01 0.9,-1.01l0.23,0c0.56,0 1.01,0.45 1.01,1.01s-0.45,1.01 -1.01,1.01z" class="cls-1"/>
  <path id="svg_31" fill="#5096e6" d="m24.1,46.16c-0.56,0 -1.09,-0.45 -1.09,-1.01s0.38,-1.01 0.93,-1.01l0.16,0c0.56,0 1.01,0.45 1.01,1.01s-0.45,1.01 -1.01,1.01z" class="cls-1"/>
  <path id="svg_32" fill="#5096e6" d="m31.89,46.16c-0.56,0 -1.09,-0.45 -1.09,-1.01s0.38,-1.01 0.93,-1.01l0.16,0c0.56,0 1.01,0.45 1.01,1.01s-0.45,1.01 -1.01,1.01z" class="cls-1"/>
  <path id="svg_33" fill="#5096e6" d="m39.69,46.16c-0.56,0 -1.09,-0.45 -1.09,-1.01s0.38,-1.01 0.93,-1.01l0.16,0c0.56,0 1.01,0.45 1.01,1.01s-0.45,1.01 -1.01,1.01z" class="cls-1"/>
  <path id="svg_34" fill="#5096e6" d="m58.96,58.64c-0.19,0 -0.39,-0.05 -0.56,-0.17l-3.98,-2.65c-0.28,-0.19 -0.45,-0.51 -0.45,-0.84l0,-6.55c0,-0.56 0.45,-1.01 1.01,-1.01s1.01,0.45 1.01,1.01l0,6.01l3.53,2.35c0.47,0.31 0.59,0.94 0.28,1.41c-0.2,0.29 -0.52,0.45 -0.84,0.45l0,-0.01z" class="cls-1"/>
 </g>
</svg>